<?xml version="1.0" standalone="no"?>
<svg xmlns:xlink="http://www.w3.org/1999/xlink" id="wave" style="transform:rotate(180deg); transition: 0.3s" viewBox="0 0 1440 100" version="1.1" xmlns="http://www.w3.org/2000/svg"><defs><linearGradient id="sw-gradient-0" x1="0" x2="0" y1="1" y2="0"><stop stop-color="rgba(239, 240, 243, 1)" offset="0%"/><stop stop-color="rgba(239, 240, 243, 1)" offset="100%"/></linearGradient></defs><path style="transform:translate(0, 0px); opacity:1" fill="url(#sw-gradient-0)" d="M0,90L40,76.7C80,63,160,37,240,25C320,13,400,17,480,30C560,43,640,67,720,68.3C800,70,880,50,960,48.3C1040,47,1120,63,1200,60C1280,57,1360,33,1440,20C1520,7,1600,3,1680,1.7C1760,0,1840,0,1920,8.3C2000,17,2080,33,2160,35C2240,37,2320,23,2400,15C2480,7,2560,3,2640,5C2720,7,2800,13,2880,26.7C2960,40,3040,60,3120,66.7C3200,73,3280,67,3360,55C3440,43,3520,27,3600,16.7C3680,7,3760,3,3840,10C3920,17,4000,33,4080,48.3C4160,63,4240,77,4320,76.7C4400,77,4480,63,4560,55C4640,47,4720,43,4800,35C4880,27,4960,13,5040,15C5120,17,5200,33,5280,33.3C5360,33,5440,17,5520,10C5600,3,5680,7,5720,8.3L5760,10L5760,100L5720,100C5680,100,5600,100,5520,100C5440,100,5360,100,5280,100C5200,100,5120,100,5040,100C4960,100,4880,100,4800,100C4720,100,4640,100,4560,100C4480,100,4400,100,4320,100C4240,100,4160,100,4080,100C4000,100,3920,100,3840,100C3760,100,3680,100,3600,100C3520,100,3440,100,3360,100C3280,100,3200,100,3120,100C3040,100,2960,100,2880,100C2800,100,2720,100,2640,100C2560,100,2480,100,2400,100C2320,100,2240,100,2160,100C2080,100,2000,100,1920,100C1840,100,1760,100,1680,100C1600,100,1520,100,1440,100C1360,100,1280,100,1200,100C1120,100,1040,100,960,100C880,100,800,100,720,100C640,100,560,100,480,100C400,100,320,100,240,100C160,100,80,100,40,100L0,100Z"/></svg>